<svg width="243" height="291" viewBox="0 0 243 291" fill="none" xmlns="http://www.w3.org/2000/svg">
<g clip-path="url(#clip0_349_397)">
<path d="M38.7146 159.04C32.4481 156.549 26.3605 146.781 26.3605 146.781C13.3907 123.185 23.9454 116.714 23.9454 116.714C30.3593 112.006 36.9362 116.714 36.9362 116.714L45.8756 146.865L38.7199 159.04H38.7146Z" fill="#FFDEC7"/>
<path d="M38.7094 162.446C38.2937 162.446 37.8676 162.367 37.4572 162.204C30.3541 159.382 24.1559 149.677 23.4719 148.582L23.3772 148.424C17.5895 137.892 15.4323 129.056 16.9686 122.158C18.1472 116.861 21.1674 114.486 21.9934 113.923C30.2804 107.899 38.5621 113.696 38.9146 113.944C40.4405 115.039 40.793 117.166 39.7038 118.693C38.6147 120.215 36.5048 120.573 34.979 119.494C34.4844 119.152 30.1699 116.366 25.9606 119.457L25.7239 119.615C25.7239 119.615 18.3893 125.155 29.2965 145.048C30.8855 147.565 35.7472 154.195 39.9722 155.87C41.719 156.565 42.5714 158.545 41.8821 160.287C41.3507 161.625 40.0722 162.436 38.7199 162.436L38.7094 162.446Z" fill="black"/>
<path d="M206.064 142.21C185.318 192.651 163.824 204.404 145.482 211.797C122.847 220.912 94.8398 223.434 70.3261 214.324C12.8015 192.961 44.5024 147.229 44.5024 147.229C44.5024 147.229 0.715664 36.1006 125.304 43.2199C173.621 45.9791 225.637 94.6397 206.069 142.21H206.064Z" fill="#FFDEC7"/>
<path d="M103.495 223.471C91.5197 223.471 79.839 221.496 69.137 217.521C50.1585 210.475 38.3779 200.028 34.1213 186.474C28.6072 168.913 37.6044 151.941 40.7193 146.823C39.346 142.937 36.0312 132.658 34.4685 119.82C31.8378 98.2257 35.5419 79.7588 45.1758 66.4207C59.5346 46.5478 86.5633 37.5961 125.494 39.8235C155.574 41.5454 186.649 59.9859 202.828 85.7143C214.582 104.413 216.85 124.939 209.21 143.506C188.154 194.699 165.929 207.226 146.75 214.956C132.691 220.617 117.88 223.471 103.495 223.471ZM114.16 46.3003C83.5905 46.3003 62.2706 54.3885 50.6899 70.4121C29.7016 99.4526 47.4804 145.522 47.6593 145.981L48.3275 147.671L47.291 149.166C47.17 149.34 35.142 167.101 40.6246 184.468C44.2287 195.889 54.6203 204.857 71.5047 211.128C93.1718 219.174 120.348 218.242 144.209 208.632C158.042 203.061 181.187 193.735 202.917 140.91C211.604 119.789 204.533 101.201 197.067 89.3318C182.245 65.7572 152.648 48.1907 125.104 46.6163C121.337 46.4004 117.685 46.295 114.16 46.295V46.3003Z" fill="black"/>
<path d="M76.3242 159.045C82.4382 159.045 87.3946 151.6 87.3946 142.416C87.3946 133.232 82.4382 125.786 76.3242 125.786C70.2103 125.786 65.2539 133.232 65.2539 142.416C65.2539 151.6 70.2103 159.045 76.3242 159.045Z" fill="#040000"/>
<path d="M83.6482 136.502C82.859 136.502 82.1118 136.044 81.7751 135.281C80.144 131.552 78.0657 129.178 75.598 128.214C72.9462 127.182 70.3312 128.003 69.0158 128.583C66.8901 129.52 63.5069 132.627 62.3862 133.748C61.5865 134.543 60.2921 134.543 59.4976 133.738C58.7031 132.937 58.7031 131.642 59.5082 130.847C59.9764 130.378 64.1804 126.245 67.3742 124.839C69.2736 124.001 73.0567 122.832 77.087 124.402C80.6018 125.771 83.4377 128.877 85.5213 133.632C85.9738 134.664 85.5055 135.87 84.469 136.323C84.2007 136.439 83.9218 136.497 83.6482 136.497V136.502Z" fill="#040000"/>
<path d="M66.8008 129.904C66.8008 129.904 69.158 128.946 68.3161 130.936L72.8621 127.335C72.8621 127.335 69.3211 127.535 66.8008 129.909V129.904Z" fill="black"/>
<path d="M145.751 159.045C151.864 159.045 156.821 151.6 156.821 142.416C156.821 133.232 151.864 125.786 145.751 125.786C139.637 125.786 134.68 133.232 134.68 142.416C134.68 151.6 139.637 159.045 145.751 159.045Z" fill="#040000"/>
<path d="M153.075 136.502C152.285 136.502 151.538 136.044 151.202 135.281C149.571 131.552 147.492 129.178 145.025 128.214C142.373 127.182 139.763 128.003 138.442 128.583C136.322 129.515 132.939 132.627 131.813 133.748C131.013 134.543 129.719 134.543 128.924 133.738C128.13 132.932 128.13 131.642 128.935 130.847C129.403 130.378 133.607 126.245 136.801 124.839C138.7 124.001 142.483 122.832 146.508 124.402C150.023 125.771 152.859 128.877 154.943 133.632C155.395 134.664 154.927 135.87 153.89 136.323C153.622 136.439 153.343 136.497 153.069 136.497L153.075 136.502Z" fill="#040000"/>
<path d="M136.227 129.904C136.227 129.904 138.584 128.946 137.742 130.936L142.288 127.335C142.288 127.335 138.747 127.535 136.227 129.909V129.904Z" fill="black"/>
<path d="M36.1206 40.6186C36.1206 40.6186 44.2024 46.2108 50.1479 39.0704L44.7075 47.1217L36.1259 40.6186H36.1206Z" fill="black"/>
<path d="M69.1948 78.3001C65.9221 78.3001 62.8862 79.2953 60.3659 81.0014C56.9985 77.6946 52.6577 74.83 47.4225 73.7558C47.1331 68.5164 43.1869 63.6825 37.2992 60.9969C29.3648 57.3794 20.4938 59.8069 17.4842 66.4206C15.1165 71.6179 17.0896 77.8473 21.8881 82.0388C19.4836 84.9244 17.9367 88.384 17.642 92.1964C16.7634 103.486 26.955 113.486 40.4141 114.539C48.5906 115.176 56.0725 112.354 60.8973 107.514C63.3124 109.015 66.1536 109.9 69.2054 109.9C77.9238 109.9 84.99 102.828 84.99 94.1026C84.99 85.3773 77.9238 78.3054 69.2054 78.3054L69.1948 78.3001Z" fill="#FF8E26"/>
<path d="M42.6292 117.346C41.8189 117.346 41.0034 117.314 40.1878 117.251C25.2555 116.087 13.9221 104.75 14.9165 91.9805C15.1849 88.5631 16.3372 85.2614 18.2892 82.3074C13.8537 77.3313 12.512 70.7491 15.0007 65.2885C16.8002 61.3392 20.2886 58.4852 24.8241 57.2425C29.1806 56.0524 34.0108 56.5 38.4252 58.5168C44.5391 61.3076 48.7642 66.1784 49.8691 71.5547C53.7364 72.6658 57.3721 74.6984 60.7237 77.6261C63.3282 76.2781 66.222 75.5778 69.1948 75.5778C79.397 75.5778 87.6997 83.8871 87.6997 94.0973C87.6997 104.308 79.397 112.617 69.1948 112.617C66.4588 112.617 63.7649 112.006 61.292 110.832C56.3566 115.002 49.6323 117.346 42.6292 117.346ZM29.7542 62.0396C28.5598 62.0396 27.3812 62.1923 26.2605 62.503C23.3087 63.3086 21.0726 65.1042 19.9571 67.5528C18.1629 71.4863 19.6572 76.4835 23.6718 79.9904L25.6764 81.7439L23.9717 83.787C21.8408 86.3409 20.5885 89.3266 20.3465 92.4123C19.5835 102.185 28.6755 110.895 40.614 111.827C47.6698 112.375 54.5151 110.047 58.9558 105.592L60.4817 104.06L62.318 105.203C64.3963 106.493 66.7745 107.177 69.1948 107.177C76.3979 107.177 82.2593 101.311 82.2593 94.1026C82.2593 86.8938 76.3979 81.0278 69.1948 81.0278C66.5746 81.0278 64.049 81.8019 61.8865 83.2657L60.045 84.5137L58.456 82.9551C54.9149 79.4797 51.0214 77.2839 46.8753 76.4361L44.818 76.0148L44.7022 73.9191C44.476 69.7802 41.2033 65.7835 36.168 63.4877C34.0792 62.5346 31.8851 62.0501 29.7542 62.0501V62.0396Z" fill="black"/>
<path d="M69.1949 112.617C58.9927 112.617 50.6899 104.308 50.6899 94.0973C50.6899 92.5913 51.9106 91.3749 53.4102 91.3749C54.9097 91.3749 56.1304 92.5966 56.1304 94.0973C56.1304 101.306 61.9918 107.172 69.1949 107.172C76.3979 107.172 82.2593 101.306 82.2593 94.0973C82.2593 86.8885 76.3979 81.0225 69.1949 81.0225C67.69 81.0225 66.4746 79.8009 66.4746 78.3001C66.4746 76.7994 67.6953 75.5778 69.1949 75.5778C79.397 75.5778 87.6998 83.8871 87.6998 94.0973C87.6998 104.308 79.397 112.617 69.1949 112.617Z" fill="black"/>
<path d="M42.687 117.346C41.8609 117.346 41.0296 117.314 40.193 117.251C25.2607 116.087 13.922 104.75 14.9217 91.9805C15.5268 84.1872 20.6252 77.326 28.5491 73.6189C29.9066 72.9818 31.5272 73.5715 32.1638 74.9353C32.8005 76.2992 32.2112 77.9157 30.8484 78.5529C24.724 81.4174 20.7989 86.5989 20.3464 92.407C19.5834 102.18 28.6754 110.89 40.6139 111.822C47.2224 112.338 53.5784 110.384 58.0507 106.461C59.1767 105.471 60.8972 105.582 61.8917 106.714C62.8808 107.846 62.7651 109.563 61.6391 110.558C56.6459 114.934 49.8479 117.346 42.687 117.346Z" fill="black"/>
<path d="M208.084 142.279C208.084 142.279 83.68 128.514 11.4072 44.5521C11.4072 44.5521 -21.3776 4.82741 45.46 51.0131C45.46 51.0131 77.5082 4.51673 99.5015 3.50571C145.067 1.41522 198.903 30.7717 215.572 62.4819C226.037 82.3969 214.83 116.745 208.084 142.279Z" fill="#040000"/>
<path d="M208.09 145.681C207.963 145.681 207.842 145.675 207.716 145.66C207.4 145.623 175.773 142.016 135.738 128.114C98.7176 115.266 46.6545 90.7169 8.82908 46.7744C5.78264 43.0831 -3.35144 32.0198 1.29452 26.9542C4.35149 23.621 10.0129 22.6363 44.634 46.311C52.116 36.0007 78.9604 1.04151 99.349 0.109477C144.74 -1.99155 200.466 26.4329 218.587 60.8971C228.583 79.9221 220.275 110.416 213.599 134.923C212.83 137.74 212.083 140.494 211.378 143.148C210.978 144.654 209.621 145.681 208.09 145.681ZM7.34006 32.3779C8.47655 34.837 11.16 38.9074 14.0275 42.3828C78.4711 117.24 186.554 135.776 205.569 138.509C206.043 136.75 206.532 134.954 207.032 133.127C213.393 109.774 221.312 80.712 212.562 64.0618C195.814 32.2094 142.004 4.98028 99.6594 6.90753C83.0118 7.67106 56.9145 40.3976 48.2592 52.9458C47.7489 53.6883 46.9596 54.199 46.0704 54.3623C45.1865 54.5255 44.271 54.3254 43.5238 53.8146C20.073 37.612 10.839 33.41 7.34006 32.3779Z" fill="#060001"/>
<path d="M191.547 146.439C195.567 129.135 211.594 114.344 223.785 116.382C235.282 118.304 242.49 131.036 238.465 148.34C234.445 165.643 218.218 186.964 203.528 185.568C190.558 184.336 189.79 168.771 189.79 168.771" fill="#FFDEC7"/>
<path d="M204.938 189.044C204.364 189.044 203.791 189.017 203.217 188.965C190.637 187.769 186.717 175.347 186.401 168.944C186.307 167.064 187.754 165.469 189.632 165.374C191.531 165.316 193.105 166.733 193.199 168.607C193.226 169.113 194.02 181.25 203.859 182.182C204.212 182.219 204.57 182.235 204.933 182.235C216.987 182.235 231.425 163.647 235.16 147.571C237.149 139.024 236.281 131.373 232.719 126.034C230.409 122.569 227.131 120.394 223.232 119.741C212.757 117.977 198.435 131.853 194.867 147.213C194.441 149.045 192.615 150.183 190.784 149.756C188.953 149.33 187.817 147.502 188.243 145.67C192.689 126.529 210.22 110.663 224.353 113.022C230.067 113.981 235.045 117.256 238.375 122.253C242.989 129.178 244.205 138.719 241.785 149.114C237.886 165.901 221.827 189.044 204.938 189.044Z" fill="black"/>
<path d="M184.976 141.768C184.976 141.768 188.364 142.874 188.154 146.623L189.474 142.273L184.976 141.768Z" fill="black"/>
<path d="M186.559 170.503C186.559 170.503 186.786 172.646 185.354 174.958L187.175 172.488L186.559 170.503Z" fill="black"/>
<path d="M19.894 74.6825C19.894 74.6825 20.9358 78.121 25.5976 75.2249L20.8516 79.1952L19.894 74.6825Z" fill="black"/>
<path d="M52.8578 102.881C52.8578 102.881 55.3886 109.131 48.7222 111.243L53.9522 110.653L57.3301 107.062L52.8578 102.881Z" fill="black"/>
<path d="M42.4135 126.718C42.4135 126.718 40.0406 117.709 45.8704 117.182L37.8728 115.529L42.4135 126.724V126.718Z" fill="black"/>
<path d="M212.257 166.296C208.626 166.296 205.816 165.137 203.907 162.841C199.75 157.849 201.818 149.408 201.907 149.05C207.174 128.319 223.911 125.423 224.621 125.313C225.742 125.139 226.784 125.892 226.957 127.008C227.136 128.119 226.379 129.167 225.268 129.346C224.653 129.451 210.441 132.026 205.864 150.056C205.396 151.931 204.701 157.423 207.048 160.23C208.305 161.73 210.315 162.367 213.209 162.173C214.303 162.115 215.308 162.947 215.382 164.074C215.456 165.2 214.609 166.175 213.483 166.248C213.067 166.275 212.657 166.29 212.257 166.29V166.296Z" fill="black"/>
<path d="M228.288 147.465C228.146 147.465 228.01 147.45 227.868 147.423C226.763 147.192 226.058 146.112 226.289 145.006C228.373 135.017 220.417 130.51 220.08 130.326C219.097 129.783 218.728 128.546 219.265 127.556C219.802 126.566 221.033 126.202 222.022 126.729C225.831 128.783 232.461 135.417 230.283 145.838C230.083 146.802 229.23 147.465 228.288 147.465Z" fill="black"/>
<path d="M204.517 146.87C204.517 146.87 221.849 148.087 210.178 163.8C210.178 163.8 200.481 162.357 204.517 146.87Z" fill="black"/>
<path d="M216.271 133.548C216.271 133.548 221.06 130.347 224.443 134.438L222.485 130.842L219.955 129.836L216.271 133.548Z" fill="black"/>
<path d="M96.292 145.48C92.209 141.599 85.974 141.541 82.3646 145.343C78.7552 149.15 79.134 155.38 83.217 159.261C84.6429 160.619 86.3371 161.509 88.0892 161.93" fill="#FFDEC7"/>
<path d="M88.0892 164.648C87.8787 164.648 87.663 164.621 87.4525 164.574C85.1795 164.026 83.0644 162.873 81.3386 161.23C78.8656 158.876 77.3871 155.754 77.1872 152.436C76.982 149.045 78.1185 145.859 80.3915 143.463C82.6382 141.099 85.7057 139.799 89.052 139.799C89.0941 139.799 89.1362 139.799 89.1783 139.799C92.4984 139.83 95.6921 141.147 98.1651 143.495C99.2542 144.532 99.3015 146.254 98.265 147.344C97.2285 148.44 95.508 148.476 94.4188 147.444C92.9456 146.044 91.0672 145.264 89.1257 145.243C87.2578 145.243 85.5583 145.923 84.3377 147.213C83.117 148.498 82.5066 150.235 82.6224 152.099C82.7434 154.037 83.6168 155.875 85.0901 157.275C86.1213 158.26 87.3788 158.945 88.7205 159.271C90.1833 159.624 91.083 161.093 90.7357 162.557C90.4358 163.805 89.3204 164.648 88.0892 164.648Z" fill="black"/>
<path d="M226.405 128.756C226.405 128.756 225.8 129.425 226.989 131.079L224.869 129.257L226.405 128.756Z" fill="black"/>
<path d="M104.226 190.16C108.501 188.246 110.051 182.405 107.686 177.115C105.321 171.824 99.9377 169.087 95.6618 171.001C91.3858 172.915 89.8365 178.756 92.2013 184.047C94.5661 189.337 99.9495 192.075 104.226 190.16Z" fill="black"/>
<path d="M102.532 201.35C101.932 201.35 101.338 201.292 100.749 201.186C96.092 200.318 93.577 196.268 93.4718 196.1C92.8877 195.136 93.1929 193.878 94.1558 193.293C95.1134 192.709 96.3656 193.009 96.9549 193.967C96.9918 194.03 98.6912 196.668 101.527 197.179C103.49 197.527 105.663 196.805 107.988 195.015C108.883 194.325 110.161 194.494 110.851 195.389C111.54 196.284 111.372 197.564 110.477 198.253C107.799 200.318 105.131 201.355 102.532 201.355V201.35Z" fill="black"/>
<path d="M178.841 22.7308C177.204 26.1957 171.248 25.132 164.745 22.0516C158.242 18.9711 153.648 15.0323 155.285 11.5728C158.494 4.7905 164.171 6.43341 170.675 9.51386C177.178 12.5943 181.677 16.7279 178.835 22.7308H178.841Z" fill="#FF8E26"/>
<path d="M174.568 27.6227C171.948 27.6227 168.396 26.796 163.577 24.5107C159.815 22.7309 156.931 20.8247 155.011 18.8553C151.386 15.1377 152.085 11.9677 152.822 10.4038C157.599 0.304111 167.218 4.85897 171.837 7.04951C175.92 8.98203 178.74 11.0673 180.456 13.4158C182.755 16.5699 183.044 20.1928 181.298 23.8893C180.503 25.5691 178.688 27.6174 174.568 27.6174V27.6227ZM161.903 9.556C159.757 9.556 158.689 10.7355 157.742 12.7312C157.421 13.4158 158.447 14.5795 158.904 15.0482C160.351 16.5331 162.772 18.1023 165.902 19.5872C172.253 22.5939 175.904 22.5413 176.373 21.5619C177.267 19.6715 177.167 18.1497 176.057 16.6279C174.91 15.0534 172.705 13.4842 169.506 11.9677C165.981 10.2985 163.603 9.556 161.898 9.556H161.903Z" fill="black"/>
<path d="M108.929 46.3732C111.092 42.0451 110.256 37.2404 107.061 35.6418C103.867 34.0431 99.5245 36.2557 97.3617 40.5839C95.1989 44.912 96.0349 49.7166 99.2291 51.3153C102.423 52.914 106.766 50.7014 108.929 46.3732Z" fill="#FF8E26"/>
<path d="M91.9406 67.9476C91.6354 67.9476 91.325 67.8792 91.0303 67.7317C90.0201 67.2262 89.615 65.9993 90.1201 64.9936L98.2597 48.7119C98.7648 47.7062 99.9908 47.3007 100.996 47.8009C102.006 48.3065 102.411 49.5334 101.906 50.5391L93.7663 66.8208C93.4086 67.5369 92.6877 67.9476 91.9406 67.9476Z" fill="#FF8E26"/>
<path d="M104.842 75.8831C104.421 75.8831 103.995 75.7515 103.627 75.4829C102.722 74.8089 102.532 73.5293 103.2 72.6236L122.137 47.0796C122.81 46.1739 124.083 45.9843 124.994 46.653C125.899 47.3271 126.088 48.6066 125.42 49.5123L106.484 75.0564C106.084 75.5988 105.468 75.8831 104.842 75.8831Z" fill="#FF8E26"/>
<path d="M120.9 65.1357C120.479 65.1357 120.053 65.0041 119.685 64.7355L109.251 56.9896C108.814 56.6684 108.525 56.184 108.446 55.6469C108.367 55.1098 108.504 54.5674 108.825 54.1304L116.923 43.204C117.596 42.2983 118.875 42.1087 119.78 42.7774C120.685 43.4514 120.874 44.731 120.206 45.6367L113.324 54.9202L120.479 60.2333L127.361 50.9498C128.035 50.0441 129.314 49.8546 130.219 50.5233C131.124 51.1973 131.313 52.4769 130.645 53.3826L122.547 64.309C122.147 64.8514 121.532 65.1357 120.906 65.1357H120.9Z" fill="#FF8E26"/>
<path d="M38.52 245.625C38.0254 244.551 37.1151 242.071 35.6314 242.071C33.0742 242.071 33.9003 252.976 33.9003 255.704C33.9003 264.545 39.1829 260.411 39.1829 264.877C39.1829 269.584 30.3487 269.753 27.1287 269.753C24.2401 269.753 16.7266 269.505 16.7266 265.208C16.7266 260.501 21.683 264.382 22.3406 257.605C23.0036 250.665 23.7455 242.982 23.7455 230.997C23.7455 226.037 23.414 223.478 22.509 221.577C21.683 219.839 16.9791 219.265 16.9791 215.874C16.9791 211.166 24.6557 210.008 31.2643 210.008C40.9245 210.008 40.7614 211.661 43.2343 215.874C46.1229 220.75 51.2424 234.299 54.8782 235.125C57.4405 235.705 60.8237 225.705 63.7965 220.25C68.0057 212.483 68.0899 210.003 78.9866 210.003C82.6171 210.003 90.8778 210.25 90.8778 215.458C90.8778 218.765 87.1631 219.423 86.337 222.235C85.6793 224.547 85.1006 234.299 85.1006 238.016C85.1006 239.254 85.5951 248.348 85.9266 256.03C86.1739 262.065 91.1303 260.743 91.1303 264.461C91.1303 269.995 79.818 269.748 76.1875 269.748C72.8043 269.748 61.4919 270.079 61.4919 264.787C61.4919 261.896 65.2066 261.401 65.7854 258.753C66.1168 257.347 67.769 243.135 64.8751 243.135C62.318 243.135 59.6714 250.407 57.6931 254.619C55.8778 258.421 52.9051 267.841 50.2638 267.51C48.9431 267.346 48.2802 267.51 43.329 256.357L38.541 245.615L38.52 245.625Z" fill="black"/>
<path d="M114.397 245.625C113.902 244.551 112.992 242.071 111.508 242.071C108.951 242.071 109.777 252.976 109.777 255.704C109.777 264.545 115.06 260.411 115.06 264.877C115.06 269.584 106.226 269.753 103.006 269.753C100.117 269.753 92.6035 269.505 92.6035 265.208C92.6035 260.501 97.5599 264.382 98.2176 257.605C98.8806 250.665 99.6224 242.982 99.6224 230.997C99.6224 226.037 99.291 223.478 98.386 221.577C97.5599 219.839 92.8561 219.265 92.8561 215.874C92.8561 211.166 100.533 210.008 107.141 210.008C116.801 210.008 116.638 211.661 119.111 215.874C122 220.75 127.119 234.299 130.755 235.125C133.317 235.705 136.701 225.705 139.673 220.25C143.883 212.483 143.967 210.003 154.864 210.003C158.494 210.003 166.755 210.25 166.755 215.458C166.755 218.765 163.04 219.423 162.214 222.235C161.556 224.547 160.978 234.299 160.978 238.016C160.978 239.254 161.472 248.348 161.804 256.03C162.051 262.065 167.007 260.743 167.007 264.461C167.007 269.995 155.695 269.748 152.064 269.748C148.681 269.748 137.369 270.079 137.369 264.787C137.369 261.896 141.084 261.401 141.662 258.753C141.994 257.347 143.646 243.135 140.752 243.135C138.195 243.135 135.548 250.407 133.57 254.619C131.755 258.421 128.782 267.841 126.141 267.51C124.82 267.346 124.157 267.51 119.206 256.357L114.418 245.615L114.397 245.625Z" fill="black"/>
<path d="M202.249 249.095C201.507 250.333 198.619 255.209 198.619 256.615C198.619 258.6 203.075 258.516 204.317 258.516C218.765 258.516 214.062 247.61 220.333 247.61C224.464 247.61 226.279 250.091 226.279 253.971C226.279 262.897 220.828 269.59 217.939 269.59C217.529 269.59 215.956 269.426 214.225 269.179C212.494 269.016 210.594 268.847 209.437 268.847H174.595C171.79 268.847 168.733 269.59 168.733 265.709C168.733 264.14 169.722 262.818 170.464 261.575L191.268 226.21C191.684 225.552 192.757 223.978 192.757 223.072C192.757 220.924 189.374 220.676 187.306 220.676C176.904 220.676 179.462 231.829 173.6 231.829C170.217 231.829 167.902 227.943 167.902 224.805C167.902 218.522 173.6 209.929 175.578 209.929C175.989 209.929 176.568 210.176 178.22 210.508C179.951 210.756 182.924 210.919 188.043 210.919C191.595 210.919 197.951 210.835 204.059 210.424C210.089 210.092 215.782 209.76 217.766 209.76C220.16 209.76 221.975 211.251 221.975 213.81C221.975 215.295 220.654 217.28 219.991 218.517L202.239 249.09L202.249 249.095Z" fill="black"/>
<path d="M59.3821 288.22C59.3821 289.141 58.6508 289.789 57.6406 289.789C56.7514 289.789 56.02 289.141 55.9411 288.351C55.7411 286.672 55.3939 284.96 55.3939 283.28C55.3939 281.917 55.0887 279.742 57.2565 279.742C58.1299 279.742 58.4298 280.205 58.9191 280.737C59.6873 280.368 60.5397 280.037 61.4131 280.037C63.3178 280.037 63.865 281.069 64.6332 282.396C65.8276 281.179 66.9009 280.147 68.8266 280.147C73.099 280.147 73.2201 285.345 73.2201 288.204C73.2201 289.104 72.4729 289.773 71.4995 289.773C70.6472 289.773 69.8579 289.183 69.8158 288.388C69.7948 288.004 69.7948 286.082 69.5948 284.834C69.1897 282.454 67.3692 282.659 66.4169 284.871C65.9696 285.924 66.1748 287.435 66.1748 287.93C66.1748 288.741 65.3224 289.368 64.4332 289.368C63.2178 289.368 62.4496 289.094 62.2444 287.414C62.1234 286.456 62.2023 285.144 62.0234 284.244C61.6604 282.527 60.1819 283.228 59.6926 284.376C59.1875 285.571 59.3874 287.272 59.3874 288.23L59.3821 288.22Z" fill="black"/>
<path d="M57.6404 289.984C56.6671 289.984 55.8357 289.273 55.741 288.367C55.6831 287.888 55.6147 287.409 55.5463 286.924C55.3727 285.729 55.1938 284.492 55.1938 283.28C55.1938 283.138 55.1938 282.986 55.1886 282.828C55.1675 281.896 55.1412 280.737 55.7936 280.068C56.1356 279.721 56.625 279.542 57.2563 279.542C58.1245 279.542 58.5086 279.974 58.9137 280.437L58.9664 280.495C59.6451 280.179 60.5185 279.837 61.4077 279.837C63.3124 279.837 63.9648 280.858 64.6699 282.069C65.7327 280.995 66.8692 279.947 68.8213 279.947C73.4146 279.947 73.4146 285.729 73.4146 288.199C73.4146 289.204 72.5885 289.963 71.4941 289.963C70.505 289.963 69.6579 289.257 69.6158 288.393C69.6158 288.314 69.6105 288.172 69.6052 287.983C69.5894 287.235 69.5579 285.845 69.3948 284.855C69.2422 283.944 68.8581 283.386 68.3477 283.323C67.7269 283.259 67.0481 283.886 66.5904 284.939C66.2484 285.745 66.3115 286.861 66.3483 287.525C66.3589 287.688 66.3641 287.819 66.3641 287.92C66.3641 288.804 65.4749 289.557 64.4226 289.557C63.1072 289.557 62.2548 289.199 62.0391 287.43C61.9865 287.003 61.9707 286.503 61.9549 286.019C61.9339 285.402 61.9181 284.765 61.8181 284.27C61.7392 283.896 61.555 283.444 61.1446 283.402C60.6869 283.365 60.1239 283.823 59.8608 284.434C59.4767 285.35 59.5188 286.614 59.5557 287.54C59.5662 287.788 59.5714 288.014 59.5714 288.209C59.5714 289.231 58.7559 289.973 57.6299 289.973L57.6404 289.984ZM57.2563 279.937C56.7302 279.937 56.3461 280.068 56.0778 280.342C55.5411 280.89 55.5621 281.959 55.5832 282.817C55.5832 282.975 55.5884 283.133 55.5884 283.275C55.5884 284.455 55.7621 285.682 55.9357 286.861C56.0041 287.351 56.0778 287.835 56.1356 288.32C56.2093 289.031 56.867 289.583 57.6404 289.583C58.5507 289.583 59.1873 289.02 59.1873 288.214C59.1873 288.025 59.1768 287.798 59.1716 287.556C59.1347 286.593 59.0874 285.276 59.5083 284.281C59.845 283.496 60.5817 282.949 61.192 283.007C61.4866 283.033 62.0075 283.228 62.2127 284.186C62.318 284.713 62.339 285.366 62.3548 286.003C62.3706 286.477 62.3811 286.966 62.4337 287.377C62.6179 288.894 63.223 289.157 64.4279 289.157C65.2487 289.157 65.9748 288.578 65.9748 287.914C65.9748 287.825 65.9695 287.693 65.959 287.54C65.9221 286.84 65.8537 285.671 66.2326 284.776C66.764 283.538 67.5953 282.817 68.4003 282.922C69.0949 283.007 69.6052 283.686 69.7894 284.781C69.9525 285.797 69.9841 287.209 70.0051 287.962C70.0051 288.146 70.0104 288.283 70.0156 288.357C70.0472 289.015 70.7154 289.552 71.4994 289.552C72.3676 289.552 73.0252 288.962 73.0252 288.183C73.0252 284.297 72.5254 280.326 68.8265 280.326C66.9271 280.326 65.8801 281.39 64.7751 282.517L64.5962 282.701L64.4068 282.375C63.6807 281.121 63.1598 280.216 61.4182 280.216C60.5448 280.216 59.6714 280.579 59.0137 280.895L58.8822 280.958L58.6296 280.679C58.2403 280.237 57.9561 279.921 57.2669 279.921L57.2563 279.937Z" fill="#FF8E26"/>
<path d="M86.7106 278.857C89.5887 278.857 91.4934 281.511 91.4934 283.907C91.4934 291.427 77.8396 293.364 77.8396 285.476C77.8396 282.675 79.5022 280.258 82.2172 278.952C82.6224 278.768 83.0696 278.657 83.5116 278.657C84.1166 278.657 84.485 279.026 84.9901 279.078C85.5583 279.005 86.1266 278.857 86.7106 278.857ZM84.3797 287.446C86.3054 287.446 88.0681 285.513 88.0681 283.849C88.0681 283.091 87.5419 281.822 86.5896 281.822C85.5583 281.822 85.211 282.722 84.0798 282.722C83.6168 282.722 83.1696 282.538 82.7855 282.301C80.4967 284.181 80.7808 287.446 84.385 287.446H84.3797Z" fill="black"/>
<path d="M83.5221 290.737C81.9173 290.737 80.4651 290.289 79.4338 289.473C78.2605 288.541 77.6396 287.161 77.6396 285.471C77.6396 282.628 79.3181 280.121 82.1278 278.768C82.5803 278.562 83.0591 278.452 83.5116 278.452C83.8904 278.452 84.185 278.583 84.4481 278.694C84.6375 278.778 84.8164 278.857 85.0111 278.878C85.1479 278.857 85.3321 278.826 85.5162 278.789C85.9003 278.72 86.3002 278.652 86.7106 278.652C89.6886 278.652 91.688 281.364 91.688 283.902C91.688 288.125 87.4525 290.737 83.5221 290.737ZM83.5063 278.847C83.1117 278.847 82.6907 278.942 82.2909 279.126C79.6233 280.411 78.029 282.785 78.029 285.471C78.029 289.062 80.865 290.342 83.5168 290.342C85.411 290.342 87.3314 289.72 88.7889 288.63C89.9307 287.783 91.2881 286.271 91.2881 283.902C91.2881 281.532 89.4466 279.047 86.7053 279.047C86.3265 279.047 85.9477 279.11 85.5793 279.178C85.3899 279.21 85.2005 279.242 85.0111 279.268C84.7112 279.242 84.4955 279.147 84.285 279.057C84.0377 278.947 83.8062 278.847 83.5063 278.847ZM84.3797 287.64C82.7907 287.64 81.6542 287.009 81.2596 285.903C80.8282 284.697 81.3911 283.186 82.6539 282.148L82.7644 282.059L82.8854 282.133C83.3064 282.396 83.7062 282.527 84.0798 282.527C84.606 282.527 84.9374 282.317 85.2952 282.09C85.6583 281.859 86.0318 281.622 86.5948 281.622C87.7103 281.622 88.268 283.049 88.268 283.849C88.268 285.555 86.4738 287.64 84.385 287.64H84.3797ZM82.8012 282.543C81.7384 283.47 81.2701 284.755 81.6332 285.771C81.9699 286.708 82.9696 287.246 84.385 287.246C86.2318 287.246 87.8734 285.345 87.8734 283.849C87.8734 283.228 87.4209 282.017 86.5948 282.017C86.1476 282.017 85.8529 282.206 85.5057 282.422C85.1374 282.654 84.7165 282.922 84.0798 282.922C83.6694 282.922 83.2432 282.796 82.8012 282.543Z" fill="#FF8E26"/>
<path d="M100.285 288.22C100.285 289.141 99.5539 289.789 98.5436 289.789C97.6544 289.789 96.9231 289.141 96.8442 288.351C96.6442 286.672 96.297 284.96 96.297 283.28C96.297 281.917 95.9918 279.742 98.1595 279.742C99.033 279.742 99.3329 280.205 99.8222 280.737C100.59 280.368 101.443 280.037 102.316 280.037C104.221 280.037 104.768 281.069 105.536 282.396C106.731 281.179 107.804 280.147 109.73 280.147C114.002 280.147 114.123 285.345 114.123 288.204C114.123 289.104 113.376 289.773 112.403 289.773C111.55 289.773 110.761 289.183 110.719 288.388C110.698 288.004 110.698 286.082 110.498 284.834C110.093 282.454 108.272 282.659 107.32 284.871C106.873 285.924 107.078 287.435 107.078 287.93C107.078 288.741 106.226 289.368 105.336 289.368C104.121 289.368 103.353 289.094 103.148 287.414C103.026 286.456 103.105 285.144 102.927 284.244C102.563 282.527 101.085 283.228 100.596 284.376C100.091 285.571 100.29 287.272 100.29 288.23L100.285 288.22Z" fill="black"/>
<path d="M98.5438 289.984C97.5704 289.984 96.739 289.273 96.6443 288.367C96.5865 287.888 96.5181 287.409 96.4497 286.924C96.276 285.729 96.0971 284.492 96.0971 283.28C96.0971 283.138 96.0971 282.986 96.0919 282.828C96.0708 281.896 96.0445 280.737 96.697 280.068C97.039 279.721 97.5283 279.542 98.1597 279.542C99.0278 279.542 99.4119 279.974 99.8171 280.437L99.8697 280.495C100.548 280.179 101.422 279.837 102.311 279.837C104.216 279.837 104.868 280.858 105.573 282.069C106.636 280.995 107.773 279.947 109.725 279.947C114.318 279.947 114.318 285.729 114.318 288.199C114.318 289.204 113.492 289.963 112.397 289.963C111.408 289.963 110.561 289.257 110.519 288.393C110.519 288.314 110.514 288.172 110.509 287.983C110.493 287.235 110.461 285.845 110.298 284.855C110.146 283.944 109.761 283.386 109.251 283.323C108.635 283.259 107.946 283.886 107.494 284.939C107.152 285.745 107.215 286.861 107.252 287.525C107.262 287.688 107.267 287.819 107.267 287.92C107.267 288.804 106.378 289.557 105.326 289.557C104.011 289.557 103.158 289.199 102.942 287.43C102.89 287.003 102.874 286.503 102.858 286.019C102.837 285.402 102.821 284.765 102.721 284.27C102.643 283.896 102.458 283.444 102.048 283.402C101.59 283.365 101.027 283.823 100.764 284.434C100.38 285.35 100.422 286.614 100.459 287.54C100.469 287.788 100.475 288.014 100.475 288.209C100.475 289.231 99.6592 289.973 98.5332 289.973L98.5438 289.984ZM98.1597 279.937C97.6335 279.937 97.2494 280.068 96.9811 280.342C96.4444 280.89 96.4654 281.959 96.4865 282.817C96.4865 282.975 96.4918 283.133 96.4918 283.275C96.4918 284.455 96.6654 285.682 96.839 286.861C96.9074 287.351 96.9811 287.835 97.039 288.32C97.1126 289.031 97.7703 289.583 98.5438 289.583C99.454 289.583 100.091 289.02 100.091 288.214C100.091 288.025 100.08 287.798 100.075 287.556C100.038 286.593 99.9907 285.276 100.412 284.281C100.748 283.496 101.485 282.949 102.095 283.007C102.39 283.033 102.911 283.228 103.116 284.186C103.221 284.713 103.242 285.366 103.258 286.003C103.274 286.477 103.284 286.966 103.337 287.377C103.521 288.894 104.126 289.157 105.331 289.157C106.152 289.157 106.878 288.578 106.878 287.914C106.878 287.825 106.873 287.693 106.862 287.54C106.825 286.84 106.757 285.671 107.136 284.776C107.667 283.538 108.493 282.817 109.304 282.922C109.998 283.007 110.509 283.686 110.693 284.781C110.856 285.797 110.887 287.209 110.908 287.962C110.908 288.146 110.914 288.283 110.919 288.357C110.951 289.015 111.619 289.552 112.403 289.552C113.271 289.552 113.929 288.962 113.929 288.183C113.929 284.297 113.429 280.326 109.73 280.326C107.83 280.326 106.783 281.39 105.678 282.517L105.5 282.701L105.31 282.375C104.584 281.121 104.063 280.216 102.322 280.216C101.448 280.216 100.575 280.579 99.917 280.895L99.7855 280.958L99.5329 280.679C99.1436 280.237 98.8595 279.921 98.1702 279.921L98.1597 279.937Z" fill="#FF8E26"/>
<path d="M129.297 280.053C130.329 280.053 130.997 280.663 131.139 281.543C131.36 283.075 131.949 286.187 133.086 287.33C133.37 287.609 133.591 287.92 133.591 288.309C133.591 289.12 132.781 289.768 131.907 289.768C130.023 289.768 129.255 287.482 128.666 286.156C127.23 287.74 125.446 289.842 122.936 289.842C119.979 289.842 118.885 287.019 118.885 284.771C118.885 283.17 119.411 278.52 121.821 278.52C122.71 278.52 123.541 279.11 123.541 279.958C123.541 280.347 122.305 282.743 122.305 284.697C122.305 287.667 124.125 286.74 125.483 284.86C126.94 282.796 127.629 280.047 129.292 280.047L129.297 280.053Z" fill="black"/>
<path d="M122.936 290.036C120 290.036 118.685 287.393 118.685 284.771C118.685 282.975 119.248 278.325 121.821 278.325C122.879 278.325 123.741 279.057 123.741 279.963C123.741 280.11 123.652 280.358 123.447 280.89C123.094 281.822 122.505 283.386 122.505 284.697C122.505 285.666 122.71 286.266 123.084 286.387C123.599 286.55 124.499 285.898 125.33 284.75C125.783 284.107 126.162 283.396 126.53 282.706C127.346 281.174 128.051 279.852 129.298 279.852C130.392 279.852 131.171 280.49 131.334 281.511C131.529 282.843 132.097 286.055 133.223 287.193C133.465 287.43 133.786 287.804 133.786 288.309C133.786 289.204 132.928 289.963 131.907 289.963C130.076 289.963 129.261 288.046 128.661 286.645C128.64 286.603 128.624 286.556 128.603 286.514C127.182 288.088 125.409 290.036 122.931 290.036H122.936ZM121.821 278.72C119.753 278.72 119.08 282.796 119.08 284.771C119.08 286.582 119.89 289.641 122.936 289.641C125.251 289.641 126.956 287.751 128.329 286.235L128.724 285.797L128.845 286.077C128.903 286.208 128.961 286.345 129.024 286.493C129.576 287.793 130.334 289.573 131.907 289.573C132.697 289.573 133.391 288.983 133.391 288.314C133.391 288.041 133.254 287.783 132.944 287.477C131.734 286.256 131.139 282.943 130.944 281.574C130.813 280.748 130.197 280.253 129.298 280.253C128.282 280.253 127.63 281.48 126.877 282.896C126.504 283.596 126.125 284.313 125.651 284.981C124.899 286.024 123.794 287.035 122.963 286.766C122.4 286.582 122.11 285.887 122.11 284.702C122.11 283.312 122.715 281.711 123.078 280.753C123.21 280.411 123.342 280.053 123.347 279.963C123.347 279.194 122.558 278.72 121.821 278.72Z" fill="#FF8E26"/>
<path d="M146.76 281.032C147.692 281.106 148.444 281.806 148.381 282.675C148.281 283.796 145.992 284.355 145.019 284.813C145.992 285.381 148.339 286.435 148.239 287.614C148.16 288.425 147.308 289.036 146.434 288.962C145.177 288.888 142.788 286.751 141.594 286.582C141.573 287.614 142.241 288.683 142.183 289.478C142.12 290.273 141.252 290.863 140.42 290.805C139.794 290.747 139.184 290.415 138.921 289.884C137.768 287.488 137.705 281.864 137.926 279.247C138.026 277.899 137.926 275.392 140.115 275.54C141.004 275.598 141.757 276.314 141.673 277.125C141.609 277.825 141.367 278.525 141.31 279.226C141.21 280.368 141.246 281.532 141.246 282.654C142.683 282.485 145.903 280.974 146.755 281.032H146.76Z" fill="black"/>
<path d="M140.536 291C140.494 291 140.452 291 140.41 291C139.663 290.937 139.026 290.537 138.747 289.968C137.521 287.425 137.537 281.527 137.737 279.226C137.747 279.094 137.753 278.952 137.763 278.805C137.816 277.82 137.895 276.467 138.674 275.777C139.042 275.45 139.531 275.298 140.136 275.345C140.673 275.377 141.173 275.624 141.51 276.019C141.788 276.345 141.92 276.746 141.883 277.146C141.852 277.504 141.773 277.867 141.699 278.22C141.625 278.557 141.552 278.91 141.52 279.247C141.441 280.126 141.446 281.032 141.457 281.906C141.457 282.08 141.457 282.254 141.457 282.427C142.151 282.301 143.162 281.938 144.146 281.585C145.308 281.169 146.319 280.8 146.787 280.837C147.865 280.921 148.655 281.738 148.586 282.691C148.497 283.686 147.066 284.234 145.913 284.671C145.761 284.729 145.608 284.786 145.471 284.839C145.535 284.871 145.598 284.908 145.661 284.944C146.876 285.608 148.539 286.514 148.444 287.635C148.355 288.546 147.418 289.252 146.429 289.162C145.724 289.12 144.724 288.499 143.761 287.893C143.056 287.451 142.336 286.998 141.809 286.84C141.846 287.261 141.983 287.688 142.115 288.109C142.272 288.604 142.42 289.078 142.388 289.499C142.325 290.331 141.478 291.011 140.541 291.011L140.536 291ZM139.936 275.729C139.521 275.729 139.189 275.84 138.931 276.072C138.274 276.651 138.205 277.909 138.153 278.826C138.142 278.978 138.137 279.126 138.126 279.257C137.879 282.175 138.016 287.54 139.1 289.794C139.315 290.231 139.842 290.552 140.436 290.605C141.199 290.674 141.936 290.11 141.983 289.457C142.009 289.11 141.873 288.678 141.725 288.214C141.557 287.683 141.383 287.135 141.394 286.572V286.35L141.62 286.382C142.23 286.466 143.067 286.993 143.956 287.546C144.877 288.125 145.835 288.72 146.445 288.757C147.218 288.825 147.971 288.278 148.039 287.588C148.113 286.724 146.455 285.819 145.461 285.281C145.256 285.171 145.066 285.066 144.914 284.976L144.593 284.786L144.93 284.628C145.156 284.523 145.45 284.407 145.761 284.291C146.755 283.912 148.113 283.396 148.181 282.649C148.234 281.917 147.602 281.29 146.745 281.222C146.345 281.216 145.293 281.58 144.267 281.948C143.156 282.348 142.009 282.759 141.273 282.843L141.052 282.87V282.649C141.052 282.401 141.052 282.154 141.052 281.901C141.046 281.016 141.036 280.105 141.12 279.205C141.152 278.841 141.231 278.478 141.304 278.131C141.378 277.794 141.452 277.441 141.483 277.104C141.515 276.814 141.415 276.514 141.204 276.272C140.941 275.961 140.531 275.761 140.11 275.735C140.052 275.735 139.994 275.729 139.942 275.729H139.936Z" fill="#FF8E26"/>
<path d="M154.927 280.921C153.875 280.921 152.738 280.627 152.738 279.447C152.738 277.53 156.179 277.973 157.6 277.973C159.22 277.973 163.109 277.715 163.109 279.905C163.109 281.437 158.915 285.271 157.821 286.651C157.9 286.782 158.021 286.819 158.163 286.819C159.499 286.819 163.793 287.13 163.793 288.752C163.793 289.673 163.024 290.284 162.009 290.284C161.057 290.284 159.925 289.989 158.952 289.863C157.537 289.678 156.179 289.694 154.738 289.694C153.685 289.694 152.591 289.273 152.591 288.162C152.591 286.93 157.552 282.301 158.589 280.916H154.922L154.927 280.921Z" fill="black"/>
<path d="M162.014 290.479C161.372 290.479 160.657 290.347 159.962 290.226C159.61 290.163 159.257 290.1 158.931 290.057C157.642 289.889 156.4 289.889 155.095 289.894H154.743C153.659 289.894 152.396 289.441 152.396 288.167C152.396 287.325 154.164 285.397 156.479 282.959C157.168 282.233 157.789 281.58 158.178 281.122H154.927C153.39 281.122 152.543 280.526 152.543 279.447C152.543 279.036 152.685 278.694 152.959 278.431C153.775 277.646 155.579 277.709 156.9 277.757C157.352 277.773 157.658 277.778 158.073 277.773C159.562 277.751 161.825 277.725 162.824 278.715C163.151 279.036 163.314 279.436 163.314 279.91C163.314 281.095 161.172 283.354 159.452 285.171C158.905 285.745 158.426 286.25 158.115 286.624C158.131 286.624 158.152 286.624 158.178 286.624C158.236 286.624 164.008 286.651 164.008 288.757C164.008 289.757 163.177 290.484 162.03 290.484L162.014 290.479ZM155.442 289.494C156.637 289.494 157.779 289.505 158.978 289.663C159.315 289.705 159.673 289.773 160.031 289.836C160.704 289.957 161.404 290.084 162.009 290.084C162.94 290.084 163.593 289.536 163.593 288.752C163.593 287.44 159.931 287.014 158.157 287.014C157.926 287.014 157.752 286.924 157.647 286.756L157.573 286.64L157.658 286.529C157.968 286.134 158.515 285.561 159.147 284.892C160.641 283.312 162.898 280.932 162.898 279.905C162.898 279.537 162.777 279.236 162.53 278.989C161.646 278.115 159.404 278.146 158.063 278.162C157.889 278.162 157.731 278.162 157.589 278.162C157.389 278.162 157.142 278.152 156.874 278.141C155.695 278.099 153.917 278.031 153.222 278.705C153.022 278.894 152.927 279.136 152.927 279.436C152.927 280.49 154.011 280.716 154.916 280.716H158.978L158.741 281.032C158.394 281.495 157.637 282.296 156.758 283.223C155.174 284.892 152.785 287.409 152.785 288.157C152.785 289.141 153.79 289.489 154.737 289.489H155.09C155.206 289.489 155.321 289.489 155.442 289.489V289.494Z" fill="#FF8E26"/>
<path d="M170.364 280.921C169.312 280.921 168.176 280.627 168.176 279.447C168.176 277.53 171.617 277.973 173.037 277.973C174.658 277.973 178.546 277.715 178.546 279.905C178.546 281.437 174.353 285.271 173.258 286.651C173.337 286.782 173.458 286.819 173.6 286.819C174.937 286.819 179.23 287.13 179.23 288.752C179.23 289.673 178.462 290.284 177.447 290.284C176.494 290.284 175.363 289.989 174.39 289.863C172.974 289.678 171.617 289.694 170.175 289.694C169.123 289.694 168.028 289.273 168.028 288.162C168.028 286.93 172.99 282.301 174.026 280.916H170.359L170.364 280.921Z" fill="black"/>
<path d="M177.452 290.479C176.81 290.479 176.094 290.347 175.4 290.226C175.047 290.163 174.695 290.1 174.368 290.057C173.079 289.889 171.832 289.889 170.533 289.894H170.18C169.096 289.894 167.833 289.441 167.833 288.167C167.833 287.325 169.601 285.397 171.916 282.959C172.606 282.233 173.227 281.58 173.616 281.122H170.364C168.828 281.122 167.981 280.526 167.981 279.447C167.981 279.036 168.123 278.694 168.396 278.431C169.212 277.646 171.017 277.709 172.337 277.757C172.79 277.773 173.095 277.778 173.511 277.773C175.005 277.751 177.262 277.725 178.262 278.715C178.588 279.036 178.751 279.436 178.751 279.91C178.751 281.095 176.61 283.354 174.889 285.171C174.342 285.745 173.863 286.25 173.553 286.624C173.569 286.624 173.59 286.624 173.616 286.624C173.674 286.624 179.446 286.651 179.446 288.757C179.446 289.757 178.614 290.484 177.467 290.484L177.452 290.479ZM170.88 289.494C172.074 289.494 173.216 289.505 174.416 289.663C174.752 289.705 175.11 289.773 175.468 289.836C176.141 289.957 176.841 290.084 177.446 290.084C178.378 290.084 179.03 289.536 179.03 288.752C179.03 287.44 175.368 287.014 173.595 287.014C173.363 287.014 173.19 286.924 173.085 286.756L173.011 286.64L173.095 286.529C173.405 286.134 173.953 285.561 174.584 284.892C176.078 283.312 178.336 280.932 178.336 279.905C178.336 279.537 178.215 279.236 177.967 278.989C177.083 278.115 174.842 278.146 173.5 278.162C173.327 278.162 173.169 278.162 173.027 278.162C172.827 278.162 172.579 278.152 172.311 278.141C171.132 278.099 169.354 278.031 168.66 278.705C168.46 278.894 168.365 279.136 168.365 279.436C168.365 280.49 169.449 280.716 170.354 280.716H174.416L174.179 281.032C173.832 281.495 173.074 282.296 172.195 283.223C170.612 284.892 168.223 287.409 168.223 288.157C168.223 289.141 169.228 289.489 170.175 289.489H170.527C170.643 289.489 170.759 289.489 170.88 289.489V289.494Z" fill="#FF8E26"/>
<path d="M183.754 286.229C183.754 284.771 183.775 281.085 186.043 281.085C186.896 281.085 187.764 281.711 187.764 282.522C187.764 282.654 187.722 282.801 187.685 282.928C187.338 284.255 187.138 285.545 187.138 286.945C187.138 287.609 187.543 288.109 187.543 288.678C187.543 289.452 186.69 290.079 185.88 290.079C184.217 290.079 183.754 288.699 183.754 287.461V286.229ZM185.517 278.689C185.517 277.82 186.285 277.083 187.259 277.083C188.232 277.083 189.021 277.651 189.021 278.541C189.021 279.373 188.169 280.142 187.259 280.142C186.348 280.142 185.517 279.537 185.517 278.689Z" fill="black"/>
<path d="M185.88 290.279C184.423 290.279 183.555 289.225 183.555 287.461V286.229C183.555 284.771 183.555 280.89 186.038 280.89C186.948 280.89 187.959 281.564 187.959 282.527C187.959 282.68 187.911 282.849 187.869 282.991C187.501 284.402 187.333 285.666 187.333 286.951C187.333 287.261 187.438 287.54 187.532 287.814C187.632 288.088 187.738 288.372 187.738 288.683C187.738 289.599 186.754 290.284 185.88 290.284V290.279ZM186.043 281.285C184.17 281.285 183.955 284.107 183.955 286.229V287.461C183.955 288.367 184.207 289.884 185.886 289.884C186.564 289.884 187.348 289.357 187.348 288.678C187.348 288.436 187.259 288.199 187.169 287.946C187.064 287.656 186.943 287.325 186.943 286.945C186.943 285.624 187.117 284.334 187.496 282.875C187.532 282.754 187.569 282.622 187.569 282.517C187.569 281.806 186.764 281.274 186.043 281.274V281.285ZM187.259 280.342C186.322 280.342 185.317 279.679 185.317 278.689C185.317 277.699 186.185 276.888 187.259 276.888C188.332 276.888 189.216 277.599 189.216 278.541C189.216 279.484 188.285 280.342 187.259 280.342ZM187.259 277.283C186.406 277.283 185.712 277.915 185.712 278.689C185.712 279.463 186.512 279.947 187.259 279.947C188.064 279.947 188.822 279.263 188.822 278.541C188.822 277.725 188.016 277.283 187.259 277.283Z" fill="#FF8E26"/>
</g>
<defs>
<clipPath id="clip0_349_397">
<rect width="243" height="291" fill="white"/>
</clipPath>
</defs>
</svg>
